<svg width="25" height="25" viewBox="0 0 25 25" fill="none" xmlns="http://www.w3.org/2000/svg">
<path fill-rule="evenodd" clip-rule="evenodd" d="M3.125 2.34375H7.8125C8.0197 2.34375 8.21841 2.42606 8.36493 2.57257C8.51144 2.71909 8.59375 2.9178 8.59375 3.125V7.8125C8.59375 8.0197 8.51144 8.21841 8.36493 8.36493C8.21841 8.51144 8.0197 8.59375 7.8125 8.59375H3.125C2.9178 8.59375 2.71909 8.51144 2.57257 8.36493C2.42606 8.21841 2.34375 8.0197 2.34375 7.8125V3.125C2.34375 2.9178 2.42606 2.71909 2.57257 2.57257C2.71909 2.42606 2.9178 2.34375 3.125 2.34375ZM0 3.125C0 2.2962 0.32924 1.50134 0.915291 0.915291C1.50134 0.32924 2.2962 0 3.125 0H7.8125C8.6413 0 9.43616 0.32924 10.0222 0.915291C10.6083 1.50134 10.9375 2.2962 10.9375 3.125V7.8125C10.9375 8.6413 10.6083 9.43616 10.0222 10.0222C9.43616 10.6083 8.6413 10.9375 7.8125 10.9375H3.125C2.2962 10.9375 1.50134 10.6083 0.915291 10.0222C0.32924 9.43616 0 8.6413 0 7.8125V3.125ZM17.1875 2.34375H21.875C22.0822 2.34375 22.2809 2.42606 22.4274 2.57257C22.5739 2.71909 22.6562 2.9178 22.6562 3.125V7.8125C22.6562 8.0197 22.5739 8.21841 22.4274 8.36493C22.2809 8.51144 22.0822 8.59375 21.875 8.59375H17.1875C16.9803 8.59375 16.7816 8.51144 16.6351 8.36493C16.4886 8.21841 16.4062 8.0197 16.4062 7.8125V3.125C16.4062 2.9178 16.4886 2.71909 16.6351 2.57257C16.7816 2.42606 16.9803 2.34375 17.1875 2.34375ZM14.0625 3.125C14.0625 2.2962 14.3917 1.50134 14.9778 0.915291C15.5638 0.32924 16.3587 0 17.1875 0H21.875C22.7038 0 23.4987 0.32924 24.0847 0.915291C24.6708 1.50134 25 2.2962 25 3.125V7.8125C25 8.6413 24.6708 9.43616 24.0847 10.0222C23.4987 10.6083 22.7038 10.9375 21.875 10.9375H17.1875C16.3587 10.9375 15.5638 10.6083 14.9778 10.0222C14.3917 9.43616 14.0625 8.6413 14.0625 7.8125V3.125ZM21.875 16.4062H17.1875C16.9803 16.4062 16.7816 16.4886 16.6351 16.6351C16.4886 16.7816 16.4062 16.9803 16.4062 17.1875V21.875C16.4062 22.0822 16.4886 22.2809 16.6351 22.4274C16.7816 22.5739 16.9803 22.6562 17.1875 22.6562H21.875C22.0822 22.6562 22.2809 22.5739 22.4274 22.4274C22.5739 22.2809 22.6562 22.0822 22.6562 21.875V17.1875C22.6562 16.9803 22.5739 16.7816 22.4274 16.6351C22.2809 16.4886 22.0822 16.4062 21.875 16.4062ZM17.1875 14.0625C16.3587 14.0625 15.5638 14.3917 14.9778 14.9778C14.3917 15.5638 14.0625 16.3587 14.0625 17.1875V21.875C14.0625 22.7038 14.3917 23.4987 14.9778 24.0847C15.5638 24.6708 16.3587 25 17.1875 25H21.875C22.7038 25 23.4987 24.6708 24.0847 24.0847C24.6708 23.4987 25 22.7038 25 21.875V17.1875C25 16.3587 24.6708 15.5638 24.0847 14.9778C23.4987 14.3917 22.7038 14.0625 21.875 14.0625H17.1875ZM3.125 16.4062H7.8125C8.0197 16.4062 8.21841 16.4886 8.36493 16.6351C8.51144 16.7816 8.59375 16.9803 8.59375 17.1875V21.875C8.59375 22.0822 8.51144 22.2809 8.36493 22.4274C8.21841 22.5739 8.0197 22.6562 7.8125 22.6562H3.125C2.9178 22.6562 2.71909 22.5739 2.57257 22.4274C2.42606 22.2809 2.34375 22.0822 2.34375 21.875V17.1875C2.34375 16.9803 2.42606 16.7816 2.57257 16.6351C2.71909 16.4886 2.9178 16.4062 3.125 16.4062ZM0 17.1875C0 16.3587 0.32924 15.5638 0.915291 14.9778C1.50134 14.3917 2.2962 14.0625 3.125 14.0625H7.8125C8.6413 14.0625 9.43616 14.3917 10.0222 14.9778C10.6083 15.5638 10.9375 16.3587 10.9375 17.1875V21.875C10.9375 22.7038 10.6083 23.4987 10.0222 24.0847C9.43616 24.6708 8.6413 25 7.8125 25H3.125C2.2962 25 1.50134 24.6708 0.915291 24.0847C0.32924 23.4987 0 22.7038 0 21.875V17.1875Z" fill="black"/>
</svg>
