<svg width="25" height="25" viewBox="0 0 25 25" fill="none" xmlns="http://www.w3.org/2000/svg">
<mask id="path-1-inside-1_32_307" fill="white">
<path fill-rule="evenodd" clip-rule="evenodd" d="M0 3.125C0 2.2962 0.32924 1.50134 0.915291 0.915291C1.50134 0.32924 2.2962 0 3.125 0H7.8125C8.6413 0 9.43616 0.32924 10.0222 0.915291C10.6083 1.50134 10.9375 2.2962 10.9375 3.125V7.8125C10.9375 8.6413 10.6083 9.43616 10.0222 10.0222C9.43616 10.6083 8.6413 10.9375 7.8125 10.9375H3.125C2.2962 10.9375 1.50134 10.6083 0.915291 10.0222C0.32924 9.43616 0 8.6413 0 7.8125V3.125ZM14.0625 3.125C14.0625 2.2962 14.3917 1.50134 14.9778 0.915291C15.5638 0.32924 16.3587 0 17.1875 0H21.875C22.7038 0 23.4987 0.32924 24.0847 0.915291C24.6708 1.50134 25 2.2962 25 3.125V7.8125C25 8.6413 24.6708 9.43616 24.0847 10.0222C23.4987 10.6083 22.7038 10.9375 21.875 10.9375H17.1875C16.3587 10.9375 15.5638 10.6083 14.9778 10.0222C14.3917 9.43616 14.0625 8.6413 14.0625 7.8125V3.125ZM17.1875 14.0625C16.3587 14.0625 15.5638 14.3917 14.9778 14.9778C14.3917 15.5638 14.0625 16.3587 14.0625 17.1875V21.875C14.0625 22.7038 14.3917 23.4987 14.9778 24.0847C15.5638 24.6708 16.3587 25 17.1875 25H21.875C22.7038 25 23.4987 24.6708 24.0847 24.0847C24.6708 23.4987 25 22.7038 25 21.875V17.1875C25 16.3587 24.6708 15.5638 24.0847 14.9778C23.4987 14.3917 22.7038 14.0625 21.875 14.0625H17.1875ZM0 17.1875C0 16.3587 0.32924 15.5638 0.915291 14.9778C1.50134 14.3917 2.2962 14.0625 3.125 14.0625H7.8125C8.6413 14.0625 9.43616 14.3917 10.0222 14.9778C10.6083 15.5638 10.9375 16.3587 10.9375 17.1875V21.875C10.9375 22.7038 10.6083 23.4987 10.0222 24.0847C9.43616 24.6708 8.6413 25 7.8125 25H3.125C2.2962 25 1.50134 24.6708 0.915291 24.0847C0.32924 23.4987 0 22.7038 0 21.875V17.1875Z"/>
</mask>
<path fill-rule="evenodd" clip-rule="evenodd" d="M0 3.125C0 2.2962 0.32924 1.50134 0.915291 0.915291C1.50134 0.32924 2.2962 0 3.125 0H7.8125C8.6413 0 9.43616 0.32924 10.0222 0.915291C10.6083 1.50134 10.9375 2.2962 10.9375 3.125V7.8125C10.9375 8.6413 10.6083 9.43616 10.0222 10.0222C9.43616 10.6083 8.6413 10.9375 7.8125 10.9375H3.125C2.2962 10.9375 1.50134 10.6083 0.915291 10.0222C0.32924 9.43616 0 8.6413 0 7.8125V3.125ZM14.0625 3.125C14.0625 2.2962 14.3917 1.50134 14.9778 0.915291C15.5638 0.32924 16.3587 0 17.1875 0H21.875C22.7038 0 23.4987 0.32924 24.0847 0.915291C24.6708 1.50134 25 2.2962 25 3.125V7.8125C25 8.6413 24.6708 9.43616 24.0847 10.0222C23.4987 10.6083 22.7038 10.9375 21.875 10.9375H17.1875C16.3587 10.9375 15.5638 10.6083 14.9778 10.0222C14.3917 9.43616 14.0625 8.6413 14.0625 7.8125V3.125ZM17.1875 14.0625C16.3587 14.0625 15.5638 14.3917 14.9778 14.9778C14.3917 15.5638 14.0625 16.3587 14.0625 17.1875V21.875C14.0625 22.7038 14.3917 23.4987 14.9778 24.0847C15.5638 24.6708 16.3587 25 17.1875 25H21.875C22.7038 25 23.4987 24.6708 24.0847 24.0847C24.6708 23.4987 25 22.7038 25 21.875V17.1875C25 16.3587 24.6708 15.5638 24.0847 14.9778C23.4987 14.3917 22.7038 14.0625 21.875 14.0625H17.1875ZM0 17.1875C0 16.3587 0.32924 15.5638 0.915291 14.9778C1.50134 14.3917 2.2962 14.0625 3.125 14.0625H7.8125C8.6413 14.0625 9.43616 14.3917 10.0222 14.9778C10.6083 15.5638 10.9375 16.3587 10.9375 17.1875V21.875C10.9375 22.7038 10.6083 23.4987 10.0222 24.0847C9.43616 24.6708 8.6413 25 7.8125 25H3.125C2.2962 25 1.50134 24.6708 0.915291 24.0847C0.32924 23.4987 0 22.7038 0 21.875V17.1875Z" fill="white"/>
<path d="M3.125 2.34375L3.5443 2.07138L3.39644 1.84375H3.125V2.34375ZM8.59375 7.8125H9.09375V7.53585L8.85936 7.38888L8.59375 7.8125ZM7.8125 8.59375L7.43929 8.92649L7.58842 9.09375H7.8125V8.59375ZM3.125 8.59375V9.09375H3.34511L3.49376 8.93141L3.125 8.59375ZM2.34375 7.8125L2.09476 7.37891L1.84375 7.52305V7.8125H2.34375ZM2.34375 3.125H1.84375V3.34589L2.00705 3.49464L2.34375 3.125ZM21.875 2.34375V1.84375H21.6255L21.4755 2.04312L21.875 2.34375ZM22.6562 3.125L22.9569 3.52452L23.1562 3.37451V3.125H22.6562ZM22.6562 7.8125H23.1562V7.559L22.9518 7.40917L22.6562 7.8125ZM21.875 8.59375L21.4784 8.89822L21.6285 9.09375H21.875V8.59375ZM17.1875 8.59375V9.09375H17.438L17.588 8.8931L17.1875 8.59375ZM16.4062 7.8125L16.1069 7.41201L15.9062 7.56199V7.8125H16.4062ZM16.4062 3.125H15.9062V3.3715L16.1018 3.52161L16.4062 3.125ZM17.1875 16.4062L17.588 16.1069L17.438 15.9062H17.1875V16.4062ZM16.4062 17.1875H15.9062V17.438L16.1069 17.588L16.4062 17.1875ZM16.4062 21.875L16.1018 21.4784L15.9062 21.6285V21.875H16.4062ZM17.1875 22.6562V23.1562H17.441L17.5908 22.9518L17.1875 22.6562ZM21.875 22.6562L21.4755 22.9569L21.6255 23.1562H21.875V22.6562ZM22.6562 21.875H23.1562V21.6255L22.9569 21.4755L22.6562 21.875ZM5.55765 5.90885L5.21974 5.54032L4.73602 5.98384L5.29204 6.33247L5.55765 5.90885ZM8.59375 7.8125H8.09375C8.09375 7.88709 8.06412 7.95863 8.01137 8.01137L8.36493 8.36493L8.71848 8.71848C8.95876 8.4782 9.09375 8.15231 9.09375 7.8125H8.59375ZM8.36493 8.36493L8.01137 8.01137C7.95863 8.06412 7.88709 8.09375 7.8125 8.09375V8.59375V9.09375C8.15231 9.09375 8.4782 8.95876 8.71848 8.71848L8.36493 8.36493ZM3.125 8.59375V8.09375C3.05041 8.09375 2.97887 8.06412 2.92613 8.01137L2.57257 8.36493L2.21902 8.71848C2.4593 8.95876 2.78519 9.09375 3.125 9.09375V8.59375ZM2.57257 8.36493L2.92613 8.01137C2.87338 7.95863 2.84375 7.88709 2.84375 7.8125H2.34375H1.84375C1.84375 8.15231 1.97874 8.4782 2.21902 8.71848L2.57257 8.36493ZM2.34375 3.125H2.84375C2.84375 3.05041 2.87338 2.97887 2.92613 2.92613L2.57257 2.57257L2.21902 2.21902C1.97874 2.4593 1.84375 2.78519 1.84375 3.125H2.34375ZM2.57257 2.57257L2.92613 2.92613C2.97887 2.87338 3.05041 2.84375 3.125 2.84375V2.34375V1.84375C2.78519 1.84375 2.4593 1.97874 2.21902 2.21902L2.57257 2.57257ZM21.875 2.34375V2.84375C21.9496 2.84375 22.0211 2.87338 22.0739 2.92613L22.4274 2.57257L22.781 2.21902C22.5407 1.97874 22.2148 1.84375 21.875 1.84375V2.34375ZM22.4274 2.57257L22.0739 2.92613C22.1266 2.97887 22.1562 3.05041 22.1562 3.125H22.6562H23.1562C23.1562 2.78519 23.0213 2.4593 22.781 2.21902L22.4274 2.57257ZM22.6562 7.8125H22.1562C22.1562 7.88709 22.1266 7.95863 22.0739 8.01137L22.4274 8.36493L22.781 8.71848C23.0213 8.4782 23.1562 8.15231 23.1562 7.8125H22.6562ZM22.4274 8.36493L22.0739 8.01137C22.0211 8.06412 21.9496 8.09375 21.875 8.09375V8.59375V9.09375C22.2148 9.09375 22.5407 8.95876 22.781 8.71848L22.4274 8.36493ZM17.1875 8.59375V8.09375C17.1129 8.09375 17.0414 8.06412 16.9886 8.01137L16.6351 8.36493L16.2815 8.71848C16.5218 8.95876 16.8477 9.09375 17.1875 9.09375V8.59375ZM16.6351 8.36493L16.9886 8.01137C16.9359 7.95863 16.9062 7.88709 16.9062 7.8125H16.4062H15.9062C15.9062 8.15231 16.0412 8.4782 16.2815 8.71848L16.6351 8.36493ZM16.4062 3.125H16.9062C16.9062 3.05041 16.9359 2.97887 16.9886 2.92613L16.6351 2.57257L16.2815 2.21902C16.0412 2.4593 15.9062 2.78519 15.9062 3.125H16.4062ZM17.1875 16.4062V15.9062C16.8477 15.9062 16.5218 16.0412 16.2815 16.2815L16.6351 16.6351L16.9886 16.9886C17.0414 16.9359 17.1129 16.9062 17.1875 16.9062V16.4062ZM16.6351 16.6351L16.2815 16.2815C16.0412 16.5218 15.9062 16.8477 15.9062 17.1875H16.4062H16.9062C16.9062 17.1129 16.9359 17.0414 16.9886 16.9886L16.6351 16.6351ZM16.4062 21.875H15.9062C15.9062 22.2148 16.0412 22.5407 16.2815 22.781L16.6351 22.4274L16.9886 22.0739C16.9359 22.0211 16.9062 21.9496 16.9062 21.875H16.4062ZM16.6351 22.4274L16.2815 22.781C16.5218 23.0213 16.8477 23.1562 17.1875 23.1562V22.6562V22.1562C17.1129 22.1562 17.0414 22.1266 16.9886 22.0739L16.6351 22.4274ZM21.875 22.6562V23.1562C22.2148 23.1562 22.5407 23.0213 22.781 22.781L22.4274 22.4274L22.0739 22.0739C22.0211 22.1266 21.9496 22.1562 21.875 22.1562V22.6562ZM22.4274 22.4274L22.781 22.781C23.0213 22.5407 23.1562 22.2148 23.1562 21.875H22.6562H22.1562C22.1562 21.9496 22.1266 22.0211 22.0739 22.0739L22.4274 22.4274ZM3.125 16.4062V16.9062H7.8125V16.4062V15.9062H3.125V16.4062ZM7.8125 16.4062V16.9062C7.88709 16.9062 7.95863 16.9359 8.01137 16.9886L8.36493 16.6351L8.71848 16.2815C8.4782 16.0412 8.15231 15.9062 7.8125 15.9062V16.4062ZM8.36493 16.6351L8.01137 16.9886C8.06412 17.0414 8.09375 17.1129 8.09375 17.1875H8.59375H9.09375C9.09375 16.8477 8.95876 16.5218 8.71848 16.2815L8.36493 16.6351ZM8.59375 17.1875H8.09375V21.875H8.59375H9.09375V17.1875H8.59375ZM8.59375 21.875H8.09375C8.09375 21.9496 8.06412 22.0211 8.01137 22.0739L8.36493 22.4274L8.71848 22.781C8.95876 22.5407 9.09375 22.2148 9.09375 21.875H8.59375ZM8.36493 22.4274L8.01137 22.0739C7.95863 22.1266 7.88709 22.1562 7.8125 22.1562V22.6562V23.1562C8.15231 23.1562 8.4782 23.0213 8.71848 22.781L8.36493 22.4274ZM7.8125 22.6562V22.1562H3.125V22.6562V23.1562H7.8125V22.6562ZM3.125 22.6562V22.1562C3.05041 22.1562 2.97887 22.1266 2.92613 22.0739L2.57257 22.4274L2.21902 22.781C2.4593 23.0213 2.78519 23.1562 3.125 23.1562V22.6562ZM2.57257 22.4274L2.92613 22.0739C2.87338 22.0211 2.84375 21.9496 2.84375 21.875H2.34375H1.84375C1.84375 22.2148 1.97874 22.5407 2.21902 22.781L2.57257 22.4274ZM2.34375 21.875H2.84375V17.1875H2.34375H1.84375V21.875H2.34375ZM19.5 5.5L19.8995 5.80063L22.2745 2.64438L21.875 2.34375L21.4755 2.04312L19.1005 5.19937L19.5 5.5ZM21.875 8.59375L22.2716 8.28928L19.8966 5.19553L19.5 5.5L19.1034 5.80447L21.4784 8.89822L21.875 8.59375ZM19.5 5.5L19.0995 5.20065L16.787 8.2944L17.1875 8.59375L17.588 8.8931L19.9005 5.79935L19.5 5.5ZM22.6562 3.125L22.3556 2.72548L19.1994 5.10048L19.5 5.5L19.8006 5.89952L22.9569 3.52452L22.6562 3.125ZM19.5 5.5L19.2045 5.90333L22.3607 8.21583L22.6562 7.8125L22.9518 7.40917L19.7955 5.09667L19.5 5.5ZM16.4062 7.8125L16.7056 8.21299L19.7994 5.90049L19.5 5.5L19.2006 5.09951L16.1069 7.41201L16.4062 7.8125ZM19.5 5.5L19.8045 5.10339L16.7107 2.72839L16.4062 3.125L16.1018 3.52161L19.1955 5.89661L19.5 5.5ZM16.4062 17.1875L16.1069 17.588L19.2006 19.9005L19.5 19.5L19.7994 19.0995L16.7056 16.787L16.4062 17.1875ZM19.5 19.5L19.1955 19.1034L16.1018 21.4784L16.4062 21.875L16.7107 22.2716L19.8045 19.8966L19.5 19.5ZM22.6562 21.875L22.9569 21.4755L19.8006 19.1005L19.5 19.5L19.1994 19.8995L22.3556 22.2745L22.6562 21.875ZM19.5 19.5L19.7955 19.9033L22.9518 17.5908L22.6562 17.1875L22.3607 16.7842L19.2045 19.0967L19.5 19.5ZM17.1875 22.6562L17.5908 22.9518L19.9033 19.7955L19.5 19.5L19.0967 19.2045L16.7842 22.3607L17.1875 22.6562ZM19.5 19.5L19.1005 19.8006L21.4755 22.9569L21.875 22.6562L22.2745 22.3556L19.8995 19.1994L19.5 19.5ZM21.875 16.4062L21.4784 16.1018L19.1034 19.1955L19.5 19.5L19.8966 19.8045L22.2716 16.7107L21.875 16.4062ZM19.5 19.5L19.9005 19.2006L17.588 16.1069L17.1875 16.4062L16.787 16.7056L19.0995 19.7994L19.5 19.5ZM3.125 2.34375L2.7057 2.61612L5.0807 6.27237L5.5 6L5.9193 5.72763L3.5443 2.07138L3.125 2.34375ZM5.5 6L5.92257 6.26727L8.23507 2.61102L7.8125 2.34375L7.38993 2.07648L5.07743 5.73273L5.5 6ZM7.8125 8.59375L8.18571 8.26101L5.87321 5.66726L5.5 6L5.12679 6.33274L7.43929 8.92649L7.8125 8.59375ZM5.5 6L5.13124 5.66234L2.75624 8.25609L3.125 8.59375L3.49376 8.93141L5.86876 6.33766L5.5 6ZM2.34375 7.8125L2.59274 8.24609L5.74899 6.43359L5.5 6L5.25101 5.56641L2.09476 7.37891L2.34375 7.8125ZM5.5 6L5.8367 5.63036L2.68045 2.75536L2.34375 3.125L2.00705 3.49464L5.1633 6.36964L5.5 6ZM8.59375 3.125L8.25584 2.75647L5.21974 5.54032L5.55765 5.90885L5.89556 6.27738L8.93166 3.49353L8.59375 3.125ZM5.55765 5.90885L5.29204 6.33247L8.32814 8.23612L8.59375 7.8125L8.85936 7.38888L5.82326 5.48523L5.55765 5.90885ZM3.125 0V-1V0ZM7.8125 0V-1V0ZM0 7.8125H-1H0ZM17.1875 0V-1V0ZM21.875 0V-1V0ZM3.125 14.0625V15.0625V14.0625ZM0 21.875H-1H0ZM0 3.125H1C1 2.56141 1.22388 2.02091 1.6224 1.6224L0.915291 0.915291L0.208184 0.208184C-0.565403 0.981772 -1 2.03098 -1 3.125H0ZM0.915291 0.915291L1.6224 1.6224C2.02091 1.22388 2.56141 1 3.125 1V0V-1C2.03098 -1 0.981772 -0.565403 0.208184 0.208184L0.915291 0.915291ZM3.125 0V1H7.8125V0V-1H3.125V0ZM7.8125 0V1C8.37609 1 8.91659 1.22388 9.3151 1.6224L10.0222 0.915291L10.7293 0.208184C9.95573 -0.565403 8.90652 -1 7.8125 -1V0ZM10.0222 0.915291L9.3151 1.6224C9.71362 2.02091 9.9375 2.56142 9.9375 3.125H10.9375H11.9375C11.9375 2.03098 11.5029 0.981772 10.7293 0.208184L10.0222 0.915291ZM10.9375 3.125H9.9375V7.8125H10.9375H11.9375V3.125H10.9375ZM10.9375 7.8125H9.9375C9.9375 8.37608 9.71362 8.91659 9.3151 9.3151L10.0222 10.0222L10.7293 10.7293C11.5029 9.95573 11.9375 8.90652 11.9375 7.8125H10.9375ZM10.0222 10.0222L9.3151 9.3151C8.91659 9.71362 8.37608 9.9375 7.8125 9.9375V10.9375V11.9375C8.90652 11.9375 9.95573 11.5029 10.7293 10.7293L10.0222 10.0222ZM7.8125 10.9375V9.9375H3.125V10.9375V11.9375H7.8125V10.9375ZM3.125 10.9375V9.9375C2.56142 9.9375 2.02091 9.71362 1.6224 9.3151L0.915291 10.0222L0.208184 10.7293C0.981772 11.5029 2.03098 11.9375 3.125 11.9375V10.9375ZM0.915291 10.0222L1.6224 9.3151C1.22388 8.91659 1 8.37609 1 7.8125H0H-1C-1 8.90652 -0.565403 9.95573 0.208184 10.7293L0.915291 10.0222ZM0 7.8125H1V3.125H0H-1V7.8125H0ZM14.0625 3.125H15.0625C15.0625 2.56142 15.2864 2.02091 15.6849 1.6224L14.9778 0.915291L14.2707 0.208184C13.4971 0.981772 13.0625 2.03098 13.0625 3.125H14.0625ZM14.9778 0.915291L15.6849 1.6224C16.0834 1.22388 16.6239 1 17.1875 1V0V-1C16.0935 -1 15.0443 -0.565403 14.2707 0.208184L14.9778 0.915291ZM17.1875 0V1H21.875V0V-1H17.1875V0ZM21.875 0V1C22.4386 1 22.9791 1.22388 23.3776 1.6224L24.0847 0.915291L24.7918 0.208184C24.0182 -0.565403 22.969 -1 21.875 -1V0ZM24.0847 0.915291L23.3776 1.6224C23.7761 2.02091 24 2.56142 24 3.125H25H26C26 2.03098 25.5654 0.981771 24.7918 0.208184L24.0847 0.915291ZM25 3.125H24V7.8125H25H26V3.125H25ZM25 7.8125H24C24 8.37608 23.7761 8.91659 23.3776 9.3151L24.0847 10.0222L24.7918 10.7293C25.5654 9.95573 26 8.90652 26 7.8125H25ZM24.0847 10.0222L23.3776 9.3151C22.9791 9.71362 22.4386 9.9375 21.875 9.9375V10.9375V11.9375C22.969 11.9375 24.0182 11.5029 24.7918 10.7293L24.0847 10.0222ZM21.875 10.9375V9.9375H17.1875V10.9375V11.9375H21.875V10.9375ZM17.1875 10.9375V9.9375C16.6239 9.9375 16.0834 9.71362 15.6849 9.3151L14.9778 10.0222L14.2707 10.7293C15.0443 11.5029 16.0935 11.9375 17.1875 11.9375V10.9375ZM14.9778 10.0222L15.6849 9.3151C15.2864 8.91659 15.0625 8.37608 15.0625 7.8125H14.0625H13.0625C13.0625 8.90652 13.4971 9.95573 14.2707 10.7293L14.9778 10.0222ZM14.0625 7.8125H15.0625V3.125H14.0625H13.0625V7.8125H14.0625ZM17.1875 14.0625V13.0625C16.0935 13.0625 15.0443 13.4971 14.2707 14.2707L14.9778 14.9778L15.6849 15.6849C16.0834 15.2864 16.6239 15.0625 17.1875 15.0625V14.0625ZM14.9778 14.9778L14.2707 14.2707C13.4971 15.0443 13.0625 16.0935 13.0625 17.1875H14.0625H15.0625C15.0625 16.6239 15.2864 16.0834 15.6849 15.6849L14.9778 14.9778ZM14.0625 17.1875H13.0625V21.875H14.0625H15.0625V17.1875H14.0625ZM14.0625 21.875H13.0625C13.0625 22.969 13.4971 24.0182 14.2707 24.7918L14.9778 24.0847L15.6849 23.3776C15.2864 22.9791 15.0625 22.4386 15.0625 21.875H14.0625ZM14.9778 24.0847L14.2707 24.7918C15.0443 25.5654 16.0935 26 17.1875 26V25V24C16.6239 24 16.0834 23.7761 15.6849 23.3776L14.9778 24.0847ZM17.1875 25V26H21.875V25V24H17.1875V25ZM21.875 25V26C22.969 26 24.0182 25.5654 24.7918 24.7918L24.0847 24.0847L23.3776 23.3776C22.9791 23.7761 22.4386 24 21.875 24V25ZM24.0847 24.0847L24.7918 24.7918C25.5654 24.0182 26 22.969 26 21.875H25H24C24 22.4386 23.7761 22.9791 23.3776 23.3776L24.0847 24.0847ZM25 21.875H26V17.1875H25H24V21.875H25ZM25 17.1875H26C26 16.0935 25.5654 15.0443 24.7918 14.2707L24.0847 14.9778L23.3776 15.6849C23.7761 16.0834 24 16.6239 24 17.1875H25ZM24.0847 14.9778L24.7918 14.2707C24.0182 13.4971 22.969 13.0625 21.875 13.0625V14.0625V15.0625C22.4386 15.0625 22.9791 15.2864 23.3776 15.6849L24.0847 14.9778ZM21.875 14.0625V13.0625H17.1875V14.0625V15.0625H21.875V14.0625ZM0 17.1875H1C1 16.6239 1.22388 16.0834 1.6224 15.6849L0.915291 14.9778L0.208184 14.2707C-0.565403 15.0443 -1 16.0935 -1 17.1875H0ZM0.915291 14.9778L1.6224 15.6849C2.02091 15.2864 2.56142 15.0625 3.125 15.0625V14.0625V13.0625C2.03098 13.0625 0.981772 13.4971 0.208184 14.2707L0.915291 14.9778ZM3.125 14.0625V15.0625H7.8125V14.0625V13.0625H3.125V14.0625ZM7.8125 14.0625V15.0625C8.37608 15.0625 8.91659 15.2864 9.3151 15.6849L10.0222 14.9778L10.7293 14.2707C9.95573 13.4971 8.90652 13.0625 7.8125 13.0625V14.0625ZM10.0222 14.9778L9.3151 15.6849C9.71362 16.0834 9.9375 16.6239 9.9375 17.1875H10.9375H11.9375C11.9375 16.0935 11.5029 15.0443 10.7293 14.2707L10.0222 14.9778ZM10.9375 17.1875H9.9375V21.875H10.9375H11.9375V17.1875H10.9375ZM10.9375 21.875H9.9375C9.9375 22.4386 9.71362 22.9791 9.3151 23.3776L10.0222 24.0847L10.7293 24.7918C11.5029 24.0182 11.9375 22.969 11.9375 21.875H10.9375ZM10.0222 24.0847L9.3151 23.3776C8.91659 23.7761 8.37608 24 7.8125 24V25V26C8.90652 26 9.95573 25.5654 10.7293 24.7918L10.0222 24.0847ZM7.8125 25V24H3.125V25V26H7.8125V25ZM3.125 25V24C2.56142 24 2.02091 23.7761 1.6224 23.3776L0.915291 24.0847L0.208184 24.7918C0.981771 25.5654 2.03098 26 3.125 26V25ZM0.915291 24.0847L1.6224 23.3776C1.22388 22.9791 1 22.4386 1 21.875H0H-1C-1 22.969 -0.565403 24.0182 0.208184 24.7918L0.915291 24.0847ZM0 21.875H1V17.1875H0H-1V21.875H0Z" fill="white" mask="url(#path-1-inside-1_32_307)"/>
</svg>
