<svg width="26" height="28" viewBox="0 0 26 28" fill="none" xmlns="http://www.w3.org/2000/svg">
<path d="M17.0001 26.3339V15.6673C17.0001 15.3137 16.8596 14.9745 16.6095 14.7245C16.3595 14.4744 16.0203 14.334 15.6667 14.334H10.3334C9.97977 14.334 9.64063 14.4744 9.39059 14.7245C9.14054 14.9745 9.00006 15.3137 9.00006 15.6673V26.3339" stroke="black" stroke-width="2" stroke-linecap="round" stroke-linejoin="round"/>
<path d="M1 11.6673C0.999907 11.2794 1.08445 10.8961 1.24772 10.5443C1.41099 10.1924 1.64906 9.88036 1.94533 9.62996L11.2787 1.62997C11.76 1.22318 12.3698 1 13 1C13.6302 1 14.24 1.22318 14.7213 1.62997L24.0547 9.62996C24.3509 9.88036 24.589 10.1924 24.7523 10.5443C24.9155 10.8961 25.0001 11.2794 25 11.6673V23.6673C25 24.3745 24.719 25.0528 24.2189 25.5529C23.7188 26.053 23.0406 26.3339 22.3333 26.3339H3.66667C2.95942 26.3339 2.28114 26.053 1.78105 25.5529C1.28095 25.0528 1 24.3745 1 23.6673V11.6673Z" stroke="black" stroke-width="2" stroke-linecap="round" stroke-linejoin="round"/>
</svg>
