<svg width="25" height="27" viewBox="0 0 25 27" fill="none" xmlns="http://www.w3.org/2000/svg">
<path d="M12.4746 1C12.8472 1.00005 13.2087 1.11637 13.5068 1.3291L13.5264 1.34277L13.5469 1.35547L23.2949 7.62793L23.3027 7.63379L23.3096 7.63965C23.7432 7.96709 24 8.46314 24 8.99805V22.8164C24.0014 23.2312 23.9198 23.6427 23.7588 24.0273C23.5976 24.4123 23.3597 24.7639 23.0586 25.0605C22.7575 25.3572 22.3983 25.5933 22.002 25.7549C21.6056 25.9164 21.1802 26 20.75 26H18.5V14.4814C18.5 12.6945 17.0249 11.2725 15.25 11.2725H9.75C7.97509 11.2725 6.50003 12.6945 6.5 14.4814V26H4.25C3.81982 26 3.39438 25.9164 2.99805 25.7549C2.60173 25.5933 2.2425 25.3572 1.94141 25.0605C1.64032 24.7639 1.40238 24.4123 1.24121 24.0273C1.08021 23.6427 0.998559 23.2312 1 22.8164V8.99805C1 8.46314 1.25681 7.96709 1.69043 7.63965L1.69629 7.63477L1.70117 7.62988L11.4043 1.35449L11.4238 1.3418L11.4424 1.3291C11.7405 1.11633 12.1019 1 12.4746 1ZM14 15.7266V26H11V15.7266H14Z" fill="white" stroke="white" stroke-width="2"/>
</svg>
