<svg width="24" height="24" viewBox="0 0 24 24" fill="none" xmlns="http://www.w3.org/2000/svg">
<path fill-rule="evenodd" clip-rule="evenodd" d="M6 5.5H9C9.13261 5.5 9.25979 5.55268 9.35355 5.64645C9.44732 5.74021 9.5 5.86739 9.5 6V9C9.5 9.13261 9.44732 9.25979 9.35355 9.35355C9.25979 9.44732 9.13261 9.5 9 9.5H6C5.86739 9.5 5.74021 9.44732 5.64645 9.35355C5.55268 9.25979 5.5 9.13261 5.5 9V6C5.5 5.86739 5.55268 5.74021 5.64645 5.64645C5.74021 5.55268 5.86739 5.5 6 5.5ZM4 6C4 5.46957 4.21071 4.96086 4.58579 4.58579C4.96086 4.21071 5.46957 4 6 4H9C9.53043 4 10.0391 4.21071 10.4142 4.58579C10.7893 4.96086 11 5.46957 11 6V9C11 9.53043 10.7893 10.0391 10.4142 10.4142C10.0391 10.7893 9.53043 11 9 11H6C5.46957 11 4.96086 10.7893 4.58579 10.4142C4.21071 10.0391 4 9.53043 4 9V6ZM15 5.5H18C18.1326 5.5 18.2598 5.55268 18.3536 5.64645C18.4473 5.74021 18.5 5.86739 18.5 6V9C18.5 9.13261 18.4473 9.25979 18.3536 9.35355C18.2598 9.44732 18.1326 9.5 18 9.5H15C14.8674 9.5 14.7402 9.44732 14.6464 9.35355C14.5527 9.25979 14.5 9.13261 14.5 9V6C14.5 5.86739 14.5527 5.74021 14.6464 5.64645C14.7402 5.55268 14.8674 5.5 15 5.5ZM13 6C13 5.46957 13.2107 4.96086 13.5858 4.58579C13.9609 4.21071 14.4696 4 15 4H18C18.5304 4 19.0391 4.21071 19.4142 4.58579C19.7893 4.96086 20 5.46957 20 6V9C20 9.53043 19.7893 10.0391 19.4142 10.4142C19.0391 10.7893 18.5304 11 18 11H15C14.4696 11 13.9609 10.7893 13.5858 10.4142C13.2107 10.0391 13 9.53043 13 9V6ZM18 14.5H15C14.8674 14.5 14.7402 14.5527 14.6464 14.6464C14.5527 14.7402 14.5 14.8674 14.5 15V18C14.5 18.1326 14.5527 18.2598 14.6464 18.3536C14.7402 18.4473 14.8674 18.5 15 18.5H18C18.1326 18.5 18.2598 18.4473 18.3536 18.3536C18.4473 18.2598 18.5 18.1326 18.5 18V15C18.5 14.8674 18.4473 14.7402 18.3536 14.6464C18.2598 14.5527 18.1326 14.5 18 14.5ZM15 13C14.4696 13 13.9609 13.2107 13.5858 13.5858C13.2107 13.9609 13 14.4696 13 15V18C13 18.5304 13.2107 19.0391 13.5858 19.4142C13.9609 19.7893 14.4696 20 15 20H18C18.5304 20 19.0391 19.7893 19.4142 19.4142C19.7893 19.0391 20 18.5304 20 18V15C20 14.4696 19.7893 13.9609 19.4142 13.5858C19.0391 13.2107 18.5304 13 18 13H15ZM6 14.5H9C9.13261 14.5 9.25979 14.5527 9.35355 14.6464C9.44732 14.7402 9.5 14.8674 9.5 15V18C9.5 18.1326 9.44732 18.2598 9.35355 18.3536C9.25979 18.4473 9.13261 18.5 9 18.5H6C5.86739 18.5 5.74021 18.4473 5.64645 18.3536C5.55268 18.2598 5.5 18.1326 5.5 18V15C5.5 14.8674 5.55268 14.7402 5.64645 14.6464C5.74021 14.5527 5.86739 14.5 6 14.5ZM4 15C4 14.4696 4.21071 13.9609 4.58579 13.5858C4.96086 13.2107 5.46957 13 6 13H9C9.53043 13 10.0391 13.2107 10.4142 13.5858C10.7893 13.9609 11 14.4696 11 15V18C11 18.5304 10.7893 19.0391 10.4142 19.4142C10.0391 19.7893 9.53043 20 9 20H6C5.46957 20 4.96086 19.7893 4.58579 19.4142C4.21071 19.0391 4 18.5304 4 18V15Z" fill="black"/>
</svg>
